HIERARCHY
ROOT Hips
{
	OFFSET -14.64140 90.27770 -84.91600
	CHANNELS 6 Xposition Yposition Zposition Zrotation Xrotation Yrotation
	JOINT Spine
	{
		OFFSET 0.00000 13.20850 -1.60436
		CHANNELS 3 Zrotation Xrotation Yrotation
		JOINT Spine1
		{
			OFFSET 0.00000 8.61716 0.00000
			CHANNELS 3 Zrotation Xrotation Yrotation
			JOINT Spine2
			{
				OFFSET 0.00000 8.61717 0.00000
				CHANNELS 3 Zrotation Xrotation Yrotation
				JOINT Spine3
				{
					OFFSET 0.00000 8.61717 0.00000
					CHANNELS 3 Zrotation Xrotation Yrotation
					JOINT Neck
					{
						OFFSET 0.00000 11.07920 1.10792
						CHANNELS 3 Zrotation Xrotation Yrotation
						JOINT Neck1
						{
							OFFSET 0.00000 7.08032 0.00000
							CHANNELS 3 Zrotation Xrotation Yrotation
							JOINT Head
							{
								OFFSET 0.00000 7.08031 0.00000
								CHANNELS 3 Zrotation Xrotation Yrotation
								End site
								{
									OFFSET 0.00000 0.00000 0.00000
								}
							}
						}
					}
					JOINT RightShoulder
					{
						OFFSET -0.01000 7.91373 5.19711
						CHANNELS 3 Zrotation Xrotation Yrotation
						JOINT RightArm
						{
							OFFSET -18.41580 0.00000 0.00000
							CHANNELS 3 Zrotation Xrotation Yrotation
							JOINT RightForeArm
							{
								OFFSET -29.11090 0.00000 0.00000
								CHANNELS 3 Zrotation Xrotation Yrotation
								JOINT RightHand
								{
									OFFSET -24.65040 0.00000 0.00000
									CHANNELS 3 Zrotation Xrotation Yrotation
									JOINT RightHandThumb1
									{
										OFFSET -5.35114 -0.85590 3.97906
										CHANNELS 3 Zrotation Xrotation Yrotation
										JOINT RightHandThumb2
										{
											OFFSET -4.52789 0.00000 0.00000
											CHANNELS 3 Zrotation Xrotation Yrotation
											JOINT RightHandThumb3
											{
												OFFSET -2.46976 0.00000 0.00000
												CHANNELS 3 Zrotation Xrotation Yrotation
												End site
												{
													OFFSET 0.00000 0.00000 0.00000
												}
											}
										}
									}
									JOINT RightHandIndex1
									{
										OFFSET -14.26970 0.00000 2.88139
										CHANNELS 3 Zrotation Xrotation Yrotation
										JOINT RightHandIndex2
										{
											OFFSET -5.48836 0.00000 0.00000
											CHANNELS 3 Zrotation Xrotation Yrotation
											JOINT RightHandIndex3
											{
												OFFSET -3.01859 0.00000 0.00000
												CHANNELS 3 Zrotation Xrotation Yrotation
												End site
												{
													OFFSET 0.00000 0.00000 0.00000
												}
											}
										}
									}
									JOINT RightHandMiddle1
									{
										OFFSET -14.26970 0.00000 -0.09147
										CHANNELS 3 Zrotation Xrotation Yrotation
										JOINT RightHandMiddle2
										{
											OFFSET -6.17441 0.00000 0.00000
											CHANNELS 3 Zrotation Xrotation Yrotation
											JOINT RightHandMiddle3
											{
												OFFSET -3.56743 0.00000 0.00000
												CHANNELS 3 Zrotation Xrotation Yrotation
												End site
												{
													OFFSET 0.00000 0.00000 0.00000
												}
											}
										}
									}
									JOINT RightHandRing1
									{
										OFFSET -12.69180 0.00000 -3.06433
										CHANNELS 3 Zrotation Xrotation Yrotation
										JOINT RightHandRing2
										{
											OFFSET -5.62556 0.00000 0.00000
											CHANNELS 3 Zrotation Xrotation Yrotation
											JOINT RightHandRing3
											{
												OFFSET -3.56744 0.00000 0.00000
												CHANNELS 3 Zrotation Xrotation Yrotation
												End site
												{
													OFFSET 0.00000 0.00000 0.00000
												}
											}
										}
									}
									JOINT RightHandPinky1
									{
										OFFSET -11.11390 0.00000 -6.03719
										CHANNELS 3 Zrotation Xrotation Yrotation
										JOINT RightHandPinky2
										{
											OFFSET -4.52789 0.00000 0.00000
											CHANNELS 3 Zrotation Xrotation Yrotation
											JOINT RightHandPinky3
											{
												OFFSET -2.46976 0.00000 0.00000
												CHANNELS 3 Zrotation Xrotation Yrotation
												End site
												{
													OFFSET 0.00000 0.00000 0.00000
												}
											}
										}
									}
								}
							}
						}
					}
					JOINT LeftShoulder
					{
						OFFSET 0.01000 7.91373 5.19711
						CHANNELS 3 Zrotation Xrotation Yrotation
						JOINT LeftArm
						{
							OFFSET 18.41580 0.00000 0.00000
							CHANNELS 3 Zrotation Xrotation Yrotation
							JOINT LeftForeArm
							{
								OFFSET 29.11090 0.00000 0.00000
								CHANNELS 3 Zrotation Xrotation Yrotation
								JOINT LeftHand
								{
									OFFSET 24.65040 0.00000 0.00000
									CHANNELS 3 Zrotation Xrotation Yrotation
									JOINT LeftHandThumb1
									{
										OFFSET 5.35114 -0.85590 3.97906
										CHANNELS 3 Zrotation Xrotation Yrotation
										JOINT LeftHandThumb2
										{
											OFFSET 4.52789 0.00000 0.00000
											CHANNELS 3 Zrotation Xrotation Yrotation
											JOINT LeftHandThumb3
											{
												OFFSET 2.46977 0.00000 0.00000
												CHANNELS 3 Zrotation Xrotation Yrotation
												End site
												{
													OFFSET 0.00000 0.00000 0.00000
												}
											}
										}
									}
									JOINT LeftHandIndex1
									{
										OFFSET 14.26970 0.00000 2.88139
										CHANNELS 3 Zrotation Xrotation Yrotation
										JOINT LeftHandIndex2
										{
											OFFSET 5.48836 0.00000 0.00000
											CHANNELS 3 Zrotation Xrotation Yrotation
											JOINT LeftHandIndex3
											{
												OFFSET 3.01859 0.00000 0.00000
												CHANNELS 3 Zrotation Xrotation Yrotation
												End site
												{
													OFFSET 0.00000 0.00000 0.00000
												}
											}
										}
									}
									JOINT LeftHandMiddle1
									{
										OFFSET 14.26970 0.00000 -0.09147
										CHANNELS 3 Zrotation Xrotation Yrotation
										JOINT LeftHandMiddle2
										{
											OFFSET 6.17440 0.00000 0.00000
											CHANNELS 3 Zrotation Xrotation Yrotation
											JOINT LeftHandMiddle3
											{
												OFFSET 3.56744 0.00000 0.00000
												CHANNELS 3 Zrotation Xrotation Yrotation
												End site
												{
													OFFSET 0.00000 0.00000 0.00000
												}
											}
										}
									}
									JOINT LeftHandRing1
									{
										OFFSET 12.69180 0.00000 -3.06433
										CHANNELS 3 Zrotation Xrotation Yrotation
										JOINT LeftHandRing2
										{
											OFFSET 5.62556 0.00000 0.00000
											CHANNELS 3 Zrotation Xrotation Yrotation
											JOINT LeftHandRing3
											{
												OFFSET 3.56744 0.00000 0.00000
												CHANNELS 3 Zrotation Xrotation Yrotation
												End site
												{
													OFFSET 0.00000 0.00000 0.00000
												}
											}
										}
									}
									JOINT LeftHandPinky1
									{
										OFFSET 11.11390 0.00000 -6.03719
										CHANNELS 3 Zrotation Xrotation Yrotation
										JOINT LeftHandPinky2
										{
											OFFSET 4.52789 0.00000 0.00000
											CHANNELS 3 Zrotation Xrotation Yrotation
											JOINT LeftHandPinky3
											{
												OFFSET 2.46976 0.00000 0.00000
												CHANNELS 3 Zrotation Xrotation Yrotation
												End site
												{
													OFFSET 0.00000 0.00000 0.00000
												}
											}
										}
									}
								}
							}
						}
					}
					JOINT pCube4
					{
						OFFSET 0.00000 10.91090 1.10792
						CHANNELS 3 Zrotation Xrotation Yrotation
						End site
						{
							OFFSET 0.00000 0.00000 0.00000
						}
					}
				}
			}
		}
	}
	JOINT RightUpLeg
	{
		OFFSET -9.98441 0.00000 0.00000
		CHANNELS 3 Zrotation Xrotation Yrotation
		JOINT RightLeg
		{
			OFFSET 0.00000 -42.11790 0.00000
			CHANNELS 3 Zrotation Xrotation Yrotation
			JOINT RightFoot
			{
				OFFSET 0.00000 -45.00020 -0.00001
				CHANNELS 3 Zrotation Xrotation Yrotation
				JOINT RightForeFoot
				{
					OFFSET 0.00000 -3.74820 0.00000
					CHANNELS 3 Zrotation Xrotation Yrotation
					JOINT RightToeBase
					{
						OFFSET 0.00000 0.06325 14.43120
						CHANNELS 3 Zrotation Xrotation Yrotation
						End site
						{
							OFFSET 0.00000 0.00000 0.00000
						}
					}
				}
			}
		}
	}
	JOINT LeftUpLeg
	{
		OFFSET 9.98441 0.00000 0.00000
		CHANNELS 3 Zrotation Xrotation Yrotation
		JOINT LeftLeg
		{
			OFFSET 0.00000 -42.11800 0.00000
			CHANNELS 3 Zrotation Xrotation Yrotation
			JOINT LeftFoot
			{
				OFFSET 0.00000 -45.00070 0.00000
				CHANNELS 3 Zrotation Xrotation Yrotation
				JOINT LeftForeFoot
				{
					OFFSET 0.00000 -3.74824 0.00000
					CHANNELS 3 Zrotation Xrotation Yrotation
					JOINT LeftToeBase
					{
						OFFSET 0.00000 0.06325 14.43110
						CHANNELS 3 Zrotation Xrotation Yrotation
						End site
						{
							OFFSET 0.00000 0.00000 0.00000
						}
					}
				}
			}
		}
	}
}
MOTION
Frames: 4
Frame Time: 0.050000
0.02129947492305101 -0.013938437383681536 -0.01911177596751582 -0.040558151658923375 0.01915731715488591 -0.047737377415125556 -1.5481299300473244 1.8502907870606398 -0.9293338444016607 -0.9169070873384364 3.931774746801863 0.3541977563450187 -1.0613395614178758 -1.294925521894937 -0.6525270684152764 0.6631242884586632 0.5109820706437302 -0.7365725495743841 0.03299945265211218 11.709312756614361 -1.1045754181549454 0.1493105140583248 -1.0458602326392477 -4.343455292410843 0.6498438749519387 -16.598746462435546 -0.3246487238641109 -1.9791418351400738 0.9556947437515088 -15.197712854644593 74.70055208729067 26.07976739920178 1.1438747073744158 11.67984875986923 2.2725884797062057 47.10453807506673 21.43169647510435 0.08014916651947766 -4.9053486643134425 4.522438461513746 -0.1183469927571099 -1.6375624494023242 0.03435720432607386 -0.04820879833611261 -56.25140975606272 0.011879687884913436 0.006853156324378556 -56.22184071559805 -38.77283723498235 -0.01130844110430942 0.004553677138710838 -0.0030201856264729598 -0.026774467895578174 -0.02740565359268199 0.034476953049510664 0.013665147511440271 -0.010859014983096882 -36.66936085558569 0.0034979995084183178 0.03314468414349204 -0.04126953616295115 -0.015213119149469243 -0.010193721837814917 0.011293343800468406 0.011288444622368502 0.03280297010558253 -19.740019632309703 0.010638491900477616 0.03146035542879858 -0.017734045849028296 -0.027817927616464618 -0.018269380646082956 -0.03538080183811033 0.008201687658265896 0.02479429987745168 24.03885526756034 0.04445981595714782 -0.013089218556325999 28.902073184006785 -0.027662494813037133 0.04433104258916419 28.818631986799637 0.015918466221824405 -0.020164549426848245 3.542763695785866 1.0416717873338408 13.741813748018574 -69.9117860988499 34.74948463530545 -6.6076080921688725 -4.094844306907344 -3.234431025970098 -95.52428061981173 -14.541543160953923 -4.803163142796276 2.9464037800313387 -0.43901676963584796 0.08523139455550931 -8.135935286380462 0.022791406876915502 0.037808301466948795 44.584689703301265 0.015104891115869476 -0.04673149691202721 44.52462025966429 12.505383231959437 0.019336267145197344 0.0054861180250926215 0.04712967847057153 0.0017671728482221824 -0.003468432122928903 -0.03468821832088388 0.008985341329132507 -0.01449349302219249 11.15411910792225 0.019136295491149546 0.02033025085815979 0.02141459622868434 -0.03432167961678424 -0.030175906606574415 0.021716237670359684 -0.04567611918639818 -0.0007909792153509269 4.737130952586791 -0.028149206417767535 0.00014358892473406024 -0.0033207926156895175 -0.04727448680704796 0.008396644098092413 -0.012281188881187786 0.010546532581169294 0.0270813362885298 -5.64009457137454 0.012112111457510281 -0.024796103807714482 -6.710460215672946 -0.0041528787693193465 -0.013324831173788612 -6.693173803745798 -0.017420799777536817 -0.007145852728362106 -0.031232491098832662 -0.00939954738913731 -0.003534691512557811 8.041646718028044 3.51092417995533 -19.17053621907093 0.017066610803422567 10.379118368325756 0.013518404934442858 -5.61157521419779 -15.70567606154827 3.207943533039331 0.038233862391839006 0.039581465876245614 0.016558085153690696 0.027265351485026137 4.717751026093094 0.03648833912203163 12.484306076299513 -8.251015420967661 6.873768420296035 0.020265693124531477 46.417401159177295 -0.021772124218058436 -4.347568633394031 -14.766275121085599 -3.840418154874614 -0.001513354430307389 0.028291358563980063 -0.0283609240718608 -0.037263259514437944 -10.775390714394602 0.03360239970948637 
0.02053083146432905 0.024805400332116347 -0.027952595447197484 -0.012739313785282026 0.010778051743233734 -0.04202970759656673 -1.3872336154086875 1.6534331003936107 -0.9342059197149336 -0.9319002263317812 3.915194080676864 0.3572125278800954 -1.08114204023222 -1.3764019103970193 -0.6672555960514439 0.7246653335141207 0.45074872232185803 -0.7641502896255921 0.1258301732947432 11.725893189419567 -1.371510810072326 0.20797689424248103 -0.9389018937434911 -4.803794121540567 0.7657970480381904 -16.46888144821689 -0.41488402492368803 -2.2798500270339135 1.0013370572805143 -15.265300211497278 75.03679804167585 25.92566976614438 0.7432373865863783 12.377212560898132 2.763422064818003 46.88577027326206 21.790236282567335 0.06580193610107768 -4.940310971787085 4.537152403445728 -0.1301068401989682 -1.6109512418416414 -0.02726227439903065 0.013666856129909108 -56.26226428715736 0.02593429865580226 0.03008981744318648 -56.19297726184624 -38.75312251639909 -0.0432856707554995 -0.034004100962848866 0.009263529439958815 -0.020904422122238076 -0.007625702261214241 -0.0012264780304319612 0.02771860615273582 0.04043494100601078 -36.66529983158022 -0.011057181411652468 0.03882463508331806 -0.024479476409945834 0.03232751210278443 -0.0009569784643821792 0.0047406560481817175 0.012236808137799579 -0.04076226153458484 -19.776855093713525 -0.005783875821283885 -0.020740697114545268 0.048414931775986686 -0.0011972519952398084 -0.03680339267241104 0.0050772034521113256 -0.011490889358705157 -0.022617561118581837 24.04366278379695 0.03479575456093115 0.041726126283972875 28.851968424020164 -0.04198446103276058 0.003871285303502697 28.837650372873746 0.040316500055641226 -0.02635805560841766 3.6086944133736902 1.0812750776844977 13.70018784199328 -70.4094243240448 35.361475874547416 -5.636706633018063 -3.7311698009661924 -4.011807575683364 -96.26001494346126 -14.44883644814334 -4.900914889353622 2.665839873988795 -0.4274911526716171 0.06980536154444304 -8.074619262050527 0.01066016803916749 0.008662086371767975 44.601909593056426 -0.020709155812263375 0.009627682740331663 44.614440193081386 12.44906675674436 -0.03164912190129976 -0.0337703010102968 0.005935536774156247 0.02233171080924589 -0.048685786843338366 0.02729193652451038 -0.007442774158432769 -0.033487584297370074 11.12360336622701 0.005854797359229927 -0.00960695314399712 -0.0008867674390271971 -0.016041624967016704 0.04010490772528694 0.021099574082295375 -0.04971698211827837 0.014741149562527483 4.7453060333834465 0.04192760798339999 -0.03258703066048327 0.00604724046586366 0.032871823184268005 -0.02280688008098669 -0.006130027647830053 -0.027438748364869554 -0.026785574493896284 -5.600052806702212 0.017960391178405314 0.005202138179759247 -6.7107925050000095 -0.03157433906888253 0.02402627165406204 -6.701078329979341 -0.03073045073018582 0.011063032171238846 0.02187348061729769 0.03723835389943711 0.026471855350442886 8.056056073272101 3.5328901126273564 -19.237617678739493 0.019185324505606165 10.395116662682131 0.060646451221535363 -5.607501642096587 -15.614158495547201 3.214028105418562 -0.0018753307505233443 0.02588459048272896 0.04260523396030924 -0.0018647068717128552 4.6758653441252465 0.04977368392197396 12.445029534417682 -8.250790497795691 6.843379564312558 0.007929139958876041 46.34076867306233 0.0018281175338641497 -4.336529798499174 -14.709256692987735 -3.884261480710182 -0.020616743700034645 -0.04807760033026122 -0.019965223938248088 -0.032023595460178196 -10.706191678982503 0.012826163679014214 
-0.0216128202175033 -0.0292791718258156 0.02366396851038704 -0.026820266927037047 0.04164635712384295 0.030709981793333598 -1.3219495687261427 1.4805734839055742 -0.934447134909839 -0.9343915803924296 3.8235636491529794 0.3560484277796814 -1.0660577254567725 -1.4004510412912157 -0.701645590160082 0.6884357822666217 0.40794350187590794 -0.8250176161573893 0.1945827943120519 11.784689886453862 -1.4279308562069504 0.207944890747384 -0.8277266621173237 -4.885722899529261 0.8209970732784061 -16.30149967474595 -0.3847985788710326 -2.439260103285399 1.0274728677663876 -15.346093549470972 75.30190835970959 25.988205228617286 0.2021047366813552 12.967703117372116 3.2927334022676886 46.452161499788396 22.089031473816338 0.09383582549549313 -4.907734815298108 4.525067922063859 -0.13730547589961192 -1.626682354486585 -0.019889580658712432 0.04508485472337647 -56.25578408509092 -0.02551756136995839 0.0009147222494891935 -56.258420298977086 -38.7953682598189 0.01749173372496618 0.03300480690308831 0.03910592884111957 -0.015841596398189953 0.007174683343406208 -0.011176481751249488 -0.03435068048762967 0.04987447777886095 -36.72159915298175 -0.026006157192614676 -0.016802794088869942 0.036646916720310306 0.0071598315716918425 0.04567033282982011 0.03257361501325549 -0.03911021535671352 -0.0020564486371548486 -19.72861667218668 -0.03379375678167889 -0.010621553485469275 -0.0037042295812376507 0.028132293426472155 0.01551596942114592 -0.003336560783241582 0.007145454517500826 -0.0018305169990281782 24.081911298479703 -0.014224402205717109 0.017711932411718385 28.81638213322113 0.022228813137004068 0.015770852170575177 28.858085474048643 0.014592669706614545 -0.02548534831813007 3.6989295613409294 1.1069352727319917 13.74236709638666 -70.693803734427 35.84481525139989 -4.777208336061274 -3.733491302332858 -4.672735931604919 -96.8296858909551 -14.051586673352089 -4.884657513158717 2.1246620806691516 -0.4352396704379004 0.0819716898491441 -8.107938655056511 0.029272232308890977 -0.04467448903340171 44.52834388267373 0.04446440505166495 0.021457667721318335 44.5837163313439 12.437025546846721 0.013454643570914365 -0.010486916813869878 -0.0073146656421794005 -0.004122820095645776 -0.02963864718572849 0.04133818865123798 -0.004832735983874699 -0.022433814644039603 11.14273695350636 0.01938420361606744 0.009628394744288112 0.030923831379373292 0.0019624278562738193 -0.001453557620048791 -0.018253323041921066 0.011919945216356993 0.03338088142559145 4.779031129921942 0.020199436303873945 0.02177079045711301 -0.04145639668664643 0.01332605820092283 0.007891607253871558 -0.015335601517048228 -0.004376702683775203 -0.038913851486946385 -5.646883850216399 -0.012318788621052524 -0.047189703073513285 -6.741210371420337 -0.0431201130073637 -0.044354967012096264 -6.697661449262238 -0.022778091093265992 -0.01723824226305831 0.021865224750627257 -0.027198554949531446 0.00016082825864168683 8.093340541064538 3.493917275142277 -19.256803364071214 0.026860475072027375 10.381411671346521 -0.03081048336178242 -5.594570728570136 -15.66731656734408 3.15006058507762 0.0050081294500964515 0.008421074422547548 -0.01630017265020222 0.02272549692532577 4.724240822859402 0.0260043125920979 12.435804561765615 -8.207203015118196 6.8462898787599995 -0.0376410671416162 46.330718395883125 0.0005860658260837348 -4.357695178059948 -14.712982760813691 -3.848475508079538 -0.018983943591611038 -0.0169932084249593 -0.019231554271563263 -0.007928923163440831 -10.72563129171324 0.017552358908293816 
0.033009951450052914 0.005758826557663723 0.026106063807025626 0.0031318419884719486 -0.014291088663735869 0.041815060748272265 -1.3553438557115094 1.280808186764058 -0.93932814368908 -0.9359843742535418 3.8728064800543964 0.420056229212103 -1.046773413559877 -1.5104962921267524 -0.7644046472017575 0.6765961100279205 0.45516961129854344 -0.7942645158441947 0.24548047565198433 11.952993766958938 -1.2914742598947706 0.24858273221725694 -0.6992724789571151 -4.596611588016244 0.8329762379262765 -16.047287428559706 -0.37256267682426464 -2.526809408459459 1.038238042966082 -15.369709571040215 75.54005211257913 26.151244587340138 -0.2312584683566184 13.509826671884081 3.6912988551213908 46.39996050821279 22.223255518068626 0.020469307567157154 -4.8690389580019255 4.553428457662324 -0.15083904042895016 -1.5908591875408682 0.04713660900928238 -0.03469954724082446 -56.28021019975579 0.0022150569088907673 -0.022471361718555877 -56.28090922927809 -38.75867230411612 0.03786717215470965 -0.0025237420871922125 -0.006530821867734596 0.01868677159193127 0.018762111268747755 -0.015533260493737275 0.04365112957223557 -0.030118892328755427 -36.713340474527016 -0.003907327393510814 0.009453180404513725 -0.005301816839011292 0.004981099843472437 -0.0017020553351178751 -0.027022717283808458 -0.021143604280023955 -0.009112362011039574 -19.756320602373407 -0.006092438103038087 0.018199373606144015 0.004643067287183315 0.039295171998034256 -0.02544361779198492 0.021931722405697858 -0.03206876843623193 -0.007475833432152409 24.04479034339517 -0.0019129206097831556 0.036214930085474786 28.853806645475245 -0.010291806393692449 -0.03243039945398193 28.874145389636862 0.024295214264886796 -0.0018747064174943339 3.834383264441868 1.0983604890989884 13.740295903312264 -70.9317025119242 36.12777744576871 -4.4661921323467695 -3.6350691673642395 -5.393771466995462 -97.71946354960586 -12.957763022912367 -4.589021779279822 1.2571373998047106 -0.49227798298398523 0.0809438250434862 -8.140362363845881 0.01119621068843656 0.026895473387678275 44.56294889799255 -0.022701786973592594 0.03265696066121555 44.532669532936 12.427708479123828 -0.02190205279410995 -0.018312141437795672 0.021172551235305207 0.047252051819910254 -0.029452524759033132 0.03587474797312232 0.045031356629974185 0.0485911136866922 11.141082516026053 0.02192956342640738 0.02024054884620975 0.03285234237568313 0.016925724538698374 -0.009841745466662012 0.04784181926635042 0.04705110199328578 0.027195780602338217 4.775098535256817 -0.02723034999398833 0.013648246450979007 0.03392625597685221 -0.0070160819998319425 -0.018486072406969617 0.0031466957633498817 -0.010296444390761406 -0.04830516829301343 -5.64034445211852 0.01316032884552033 0.03171711908249283 -6.6868427087784745 -0.007551178487707377 -0.012527640638488652 -6.768905966851975 -0.03893218810811253 -0.007056484211667306 0.0012753694498188846 -0.007843776385712571 -0.0050959832175661475 8.088789723625952 3.4834577461450236 -19.24511579477364 -0.03134037920942816 10.382013747943306 0.03423684581718758 -5.615163455983326 -15.631082347146606 3.1599001536008458 0.0011462922105807906 -0.023412919664317217 -0.043735921138598415 -0.0149201328061282 4.669078762236629 0.013814524306389653 12.428749325042544 -8.198574331980547 6.875542435431597 -0.04722072544804757 46.408462791634584 0.05037370717834817 -4.290883802621474 -14.753856581557947 -3.8449394970521604 -0.03468902429640513 0.04375453095828329 0.034150590875375086 -0.022324460518231583 -10.76318020694724 -0.038761565682889944 
